<!DOCTYPE svg PUBLIC "-//W3C//DTD SVG 1.1//EN" "http://www.w3.org/Graphics/SVG/1.1/DTD/svg11.dtd">
<!-- Uploaded to: SVG Repo, www.svgrepo.com, Transformed by: SVG Repo Mixer Tools -->
<svg width="800px" height="800px" viewBox="-102.4 -102.4 1228.80 1228.80" class="icon" version="1.1" xmlns="http://www.w3.org/2000/svg" fill="#000000">
<g id="SVGRepo_bgCarrier" stroke-width="0">
<path transform="translate(-102.4, -102.4), scale(38.4)" d="M16,31.397587738103336C18.068830220644774,31.937666030315953,20.365906676007942,30.97948829312522,22.13396416627694,29.777109087268723C23.853462455331577,28.607752887798895,24.364941033888424,26.32987635442579,25.742468166438393,24.77215773850409C27.106739958004816,23.22942836738386,29.713545492020977,22.61715776820488,30.228928525512114,20.623259134229134C30.752950247978998,18.595939395892604,28.568207143023507,16.784507684560946,28.345284656737988,14.702458297016467C28.122901603233785,12.62544709880262,29.55912065852293,10.525606164378939,28.934368454902135,8.532338890764452C28.30336771963476,6.519135723259405,26.968694004159847,4.193943128679963,24.908736339049632,3.7381763686875384C22.53260866259303,3.212456820771968,20.410506621476124,5.379648786129086,18.096964568212194,6.134557353879456C16.779782050405284,6.564353893164582,15.500153165371305,7.518485681717462,14.14052198880129,7.251843760601421C11.63575702662467,6.76062573547214,9.703885871141392,3.1776391225334657,7.292925682444412,4.015740329117602C5.290736065081385,4.711744162772396,6.701374467822971,8.197771769904051,5.843417461821916,10.136094337536225C5.092442771755095,11.832719202530113,2.8739265763065176,12.756077656452488,2.611224107210438,14.592782948644818C2.349805591356326,16.420511379208996,4.205581757832825,17.91924041280103,4.468819214729805,19.746707757956717C4.793848064731902,22.003148070874623,2.773442963466537,24.842020675090478,4.327795891835736,26.509699784860953C5.8965843105815905,28.192866860910552,9.021127156914584,26.01923042126021,11.143453398743933,26.907982260600637C13.199421817156153,27.768945894502032,13.843317073199195,30.834575065372917,16,31.397587738103336" fill="#91a1a6" strokewidth="0"/>
</g>
<g id="SVGRepo_tracerCarrier" stroke-linecap="round" stroke-linejoin="round"/>
<g id="SVGRepo_iconCarrier">
<path d="M854.7 828.1H169.9c-38.9 0-70.5-31.6-70.5-70.5v-499c0-38.9 31.6-70.5 70.5-70.5h684.7c38.9 0 70.5 31.6 70.5 70.5v499c0.1 38.9-31.5 70.5-70.4 70.5z" fill="#E6E6E6"/>
<path d="M885.2 258.1c0-16.5-13.5-30-30-30H169.4c-16.5 0-30 13.5-30 30v120.1h745.7V258.1z m-649.7 96.1c-28.2 0-51.2-23-51.2-51.2s23-51.2 51.2-51.2 51.2 23 51.2 51.2-22.9 51.2-51.2 51.2z m281.8-6.8H374.7c-24.1 0-43.7-19.6-43.7-43.7s19.6-43.7 43.7-43.7h142.6c24.1 0 43.7 19.6 43.7 43.7s-19.6 43.7-43.7 43.7z" fill="#E6E6E6"/>
<path d="M213.3 752.8h298.8c5.5 0 10-4.5 10-10s-4.5-10-10-10H213.3c-8.5 0-15.4-6.9-15.4-15.4V524.6c0-5.5-4.5-10-10-10s-10 4.5-10 10v192.9c0.1 19.4 15.9 35.3 35.4 35.3z" fill="#236367"/>
<path d="M235.5 271.8c-17.2 0-31.2 14-31.2 31.2s14 31.2 31.2 31.2 31.2-14 31.2-31.2-14-31.2-31.2-31.2z" fill="#E6E6E6"/>
<path d="M235.5 251.8c-28.2 0-51.2 23-51.2 51.2s23 51.2 51.2 51.2 51.2-23 51.2-51.2-22.9-51.2-51.2-51.2z m0 82.4c-17.2 0-31.2-14-31.2-31.2s14-31.2 31.2-31.2 31.2 14 31.2 31.2-14 31.2-31.2 31.2z" fill="#203a6a"/>
<path d="M517.3 280.1H374.7c-13 0-23.7 10.6-23.7 23.7s10.6 23.7 23.7 23.7h142.6c13 0 23.7-10.6 23.7-23.7s-10.7-23.7-23.7-23.7z" fill="#E6E6E6"/>
<path d="M517.3 260.1H374.7c-24.1 0-43.7 19.6-43.7 43.7s19.6 43.7 43.7 43.7h142.6c24.1 0 43.7-19.6 43.7-43.7s-19.6-43.7-43.7-43.7z m0 67.3H374.7c-13 0-23.7-10.6-23.7-23.7s10.6-23.7 23.7-23.7h142.6c13 0 23.7 10.6 23.7 23.7s-10.7 23.7-23.7 23.7z" fill="#203a6a"/>
<path d="M855.2 188.1H169.4c-38.6 0-70 31.4-70 70v500c0 38.6 31.4 70 70 70h685.7c38.6 0 70-31.4 70-70v-500c0.1-38.6-31.3-70-69.9-70z m30 570c0 16.5-13.5 30-30 30H169.4c-16.5 0-30-13.5-30-30V398.2h745.7v359.9z m0-379.9H139.5V258.1c0-16.5 13.5-30 30-30h685.7c16.5 0 30 13.5 30 30v120.1z" fill="#203a6a"/>
<path d="M459.9 624.6l-114.3-45.3 114.3-43.7v-46.5L296.1 560v39.5l163.8 71.2zM568.7 454.8h-34.4L475.1 702h33.8zM747.9 560.3l-164-70.9v45.8l114.4 44.5-114.4 45v46.2l164-71.4z" fill="#203a6a"/>
</g>
</svg>